<svg width="209" height="60" xmlns="http://www.w3.org/2000/svg">
	<path d="M58.24 37.741c-.039.148-.027.37-.186.412-.161.042-.276-.15-.362-.271-.529-.749-26.488-28.992-27.574-30.084-.48-.484-.659-.442-1.155.127-.167.191-27.067 29.512-27.52 30.012-.203.224-.325.246-.416-.1-.81-3.09-1.157-6.23-.984-9.422.25-4.6 1.428-8.95 3.685-12.964C8.05 7.764 14.464 2.69 23.088.795c10.727-2.357 20.057.557 27.78 8.338 4.385 4.419 6.953 9.84 7.976 15.99.266 1.603.399 3.217.396 5.034.015 2.446-.34 5.035-1 7.584zM8.63 51.18c-.237-.236-.276-.386-.009-.62.326-.286 20.392-22.077 20.833-22.588.147-.171.255-.192.4-.001.613.806 20.367 22.263 20.848 22.736.221.218.063.313-.068.446a29.42 29.42 0 01-3.679 3.174c-4.403 3.183-9.302 5.05-14.717 5.55-.88.08-1.761.095-2.65.123-8.16-.138-15.15-3.062-20.958-8.82zm123.277-32.904c5.22-2.053 13.529-.59 15.916 7.758 1.101 3.849.91 7.672-.967 11.271-1.813 3.476-4.784 5.369-8.638 5.874-2.06.27-4.096.14-6.068-.594-1.787-.664-3.232-1.775-4.351-3.315-.1-.137-.196-.276-.37-.52v13.075c0 .565 0 .565-.584.565-1.505 0-3.01-.008-4.513.007-.31.004-.42-.056-.42-.398.01-11.311.009-22.623 0-33.935 0-.32.078-.42.409-.416 1.576.018 3.153.016 4.73.002.306-.003.388.09.385.39-.016 1.287-.007 2.574-.007 3.86 1.172-1.644 2.62-2.893 4.478-3.624zm-4.376 13.565c.501 3.98 3.538 6.709 7.536 6.767 3.297.048 6.03-1.762 7.201-4.798a9.483 9.483 0 00.444-5.42c-.58-2.805-2.106-4.903-4.859-5.856-2.769-.958-5.415-.597-7.7 1.33-1.97 1.66-2.693 3.906-2.728 6.416-.01.525.04 1.043.106 1.561zM79.632 43.276c-1.895.18-3.756.07-5.548-.632-5.212-2.043-5.81-7.544-4.1-10.725 1.048-1.95 2.786-3 4.842-3.598 1.257-.365 2.55-.513 3.855-.518 2.445-.009 4.89-.009 7.334.004.328.002.452-.065.44-.423-.02-.639-.036-1.276-.202-1.894-.516-1.92-1.866-2.938-3.723-3.342-2.465-.537-4.824-.12-7.098.906-.792.357-1.552.774-2.271 1.261-.195.133-.303.19-.455-.077a152.032 152.032 0 00-1.932-3.292c-.128-.212-.09-.305.112-.434 3.785-2.409 7.913-3.382 12.37-2.963 1.331.125 2.625.417 3.844.987 2.818 1.318 4.306 3.583 4.656 6.63.186 1.616.079 3.242.088 4.863.022 4.214.02 8.43.039 12.644.001.328-.066.444-.422.44-1.533-.022-3.066-.017-4.6-.003-.295.002-.399-.067-.39-.38.02-.865.007-1.732.007-2.7-1.862 2.146-4.214 2.996-6.846 3.246zm6.82-11.088c.026-.313-.095-.385-.392-.384-2.242.013-4.485-.005-6.726.016-1.07.01-2.14.087-3.154.488-.953.377-1.587 1.031-1.795 2.061-.418 2.074.655 3.797 2.8 4.358 2.136.56 4.232.32 6.204-.653 2.016-.995 3.235-2.543 3.057-4.852 0-.397-.02-.717.006-1.034zm103.73.295c-.37-.002-.465.06-.36.45.988 3.64 3.905 5.892 7.666 5.913 2.71.015 5.074-.86 7.047-2.734.203-.194.298-.167.472.022.802.874 1.611 1.743 2.438 2.594.215.221.194.338-.01.546-1.893 1.925-4.174 3.134-6.806 3.669-2.933.596-5.846.533-8.667-.541-4.296-1.635-6.748-4.826-7.549-9.3-.497-2.775-.301-5.523.805-8.141 1.728-4.09 4.879-6.425 9.186-7.246 2.188-.417 4.38-.333 6.54.204 3.74.931 6.143 3.297 7.302 6.954.76 2.397.822 4.866.712 7.35-.013.296-.185.268-.378.268-1.822-.002-3.645-.001-5.467-.001h-3.776c-3.052 0-6.104.005-9.156-.007zm13.576-4.001c.303.001.395-.07.367-.385-.115-1.294-.472-2.502-1.236-3.564-1.168-1.623-2.817-2.386-4.757-2.6-4.133-.46-7.557 1.7-8.44 6.12-.067.333-.016.434.352.432 2.27-.018 4.542-.01 6.814-.01 2.3 0 4.6-.005 6.9.007zm-101.515 9.695c1.793.625 3.625.984 5.536.747.592-.073 1.165-.22 1.693-.504 1.51-.813 1.797-2.704.596-3.93-.528-.539-1.188-.867-1.873-1.147-1.461-.597-3-.952-4.491-1.46-.863-.293-1.71-.62-2.521-1.04-2.608-1.35-3.848-3.485-3.703-6.426.14-2.809 1.547-4.754 4.053-5.932 1.946-.914 4.02-1.146 6.139-1.036 2.591.136 5.05.77 7.31 2.081.759.441.755.448.364 1.24-.486.986-.979 1.968-1.456 2.958-.118.246-.196.338-.49.168-2.03-1.175-4.202-1.914-6.556-2.06-.873-.054-1.737.011-2.565.313-.844.31-1.432.866-1.572 1.796-.146.975.228 1.728 1.023 2.28 1.088.757 2.352 1.09 3.594 1.474 1.435.442 2.883.846 4.256 1.47.847.384 1.647.842 2.356 1.45 1.82 1.561 2.395 3.599 2.172 5.9-.291 3.015-2.04 4.989-4.795 5.91-5.262 1.76-10.198.925-14.724-2.305-.342-.244-.39-.453-.184-.836.598-1.122 1.146-2.27 1.73-3.44 1.234 1.056 2.61 1.806 4.108 2.329zm70.999-15.655c.371-.491.667-.984 1.017-1.441 1.655-2.16 3.873-3.285 6.55-3.544.394-.038.902-.257 1.162.011.23.237.063.746.065 1.134.007 1.216-.009 2.433.01 3.65.005.322-.07.414-.405.402-1.756-.063-3.434.252-4.935 1.211-2.26 1.445-3.403 3.577-3.446 6.219-.068 4.156-.024 8.313-.01 12.47.002.379-.084.486-.473.48-1.547-.025-3.096-.021-4.643-.002-.335.004-.402-.098-.401-.415.008-8.212.009-16.425-.001-24.637 0-.33.088-.414.41-.41 1.563.015 3.125.02 4.687-.003.37-.006.423.13.419.449-.015 1.318-.006 2.636-.006 3.954v.472zm-13.603 20.114c.001.382-.09.484-.476.477a178.15 178.15 0 00-4.555-.003c-.317.003-.442-.049-.44-.414.01-8.21.01-16.42.001-24.631 0-.316.066-.421.401-.417 1.547.019 3.095.02 4.642 0 .36-.006.425.115.424.443l.003 24.545zm-2.77-28.94c-1.81-.012-3.183-1.442-3.178-3.312.006-1.908 1.37-3.338 3.195-3.35 1.839-.013 3.213 1.428 3.21 3.365-.003 1.902-1.38 3.308-3.227 3.296z" fill="#00D367" fill-rule="evenodd" />
</svg>
